<?xml version="1.0" standalone="no"?>
<!DOCTYPE svg PUBLIC "-//W3C//DTD SVG 20010904//EN"
 "http://www.w3.org/TR/2001/REC-SVG-20010904/DTD/svg10.dtd">
<svg version="1.0" xmlns="http://www.w3.org/2000/svg"
 width="1280.000000pt" height="1280.000000pt" viewBox="0 0 1280.000000 1280.000000"
 preserveAspectRatio="xMidYMid meet">
<g transform="translate(0.000000,1280.000000) scale(0.100000,-0.100000)"
fill="#000000" stroke="none">
<path d="M1072 11727 c-578 -578 -1052 -1057 -1052 -1062 0 -5 957 -967 2127
-2137 l2128 -2128 -2128 -2128 c-1170 -1170 -2127 -2132 -2127 -2137 0 -13
2102 -2115 2115 -2115 5 0 967 957 2137 2127 l2128 2128 2128 -2128 c1170
-1170 2132 -2127 2137 -2127 13 0 2115 2102 2115 2115 0 5 -957 967 -2127
2137 l-2128 2128 2128 2128 c1170 1170 2127 2132 2127 2137 0 13 -2102 2115
-2115 2115 -5 0 -967 -957 -2137 -2127 l-2128 -2128 -2128 2128 c-1170 1170
-2132 2127 -2137 2127 -6 0 -484 -474 -1063 -1053z"/>
</g>
</svg>
